<svg width="83" height="80" fill="none" xmlns="http://www.w3.org/2000/svg"><g clip-path="url(#clip0_906_1865)"><path d="M67.521 0H14.53C6.505 0 0 6.505 0 14.53v50.94C0 73.495 6.505 80 14.53 80h52.99c8.025 0 14.53-6.505 14.53-14.53V14.53C82.051 6.505 75.546 0 67.521 0z" fill="#300"/><path d="M39.76 48.01H27.047l-2.587 8.036a.647.647 0 01-.66.495h-6.44c-.368 0-.496-.201-.386-.605L27.982 24.23c.11-.33.22-.706.33-1.128.144-.735.218-1.481.22-2.23a.34.34 0 01.385-.385h8.752c.257 0 .403.092.44.276L50.604 55.99c.11.367 0 .55-.33.55h-7.156a.51.51 0 01-.55-.385L39.76 48.01zm-10.733-6.936h8.697a151.12 151.12 0 00-.77-2.477 526.64 526.64 0 01-.936-2.944l-.991-3.138a105.27 105.27 0 01-.908-3.027c-.275-.972-.523-1.862-.743-2.67h-.055a44.485 44.485 0 01-1.156 4.404c-.514 1.65-1.037 3.339-1.569 5.063a135.709 135.709 0 01-1.569 4.79zm29.007-14.751a3.99 3.99 0 01-3.027-1.211 4.355 4.355 0 01-1.156-3.137 4.039 4.039 0 011.238-3.055 4.253 4.253 0 013.055-1.184c1.321 0 2.358.395 3.11 1.184a4.249 4.249 0 011.129 3.055 4.299 4.299 0 01-1.184 3.137 4.223 4.223 0 01-3.165 1.21zM54.236 55.99V29.68c0-.33.147-.496.44-.496h6.77c.294 0 .441.165.441.495v26.31c0 .368-.147.552-.44.551h-6.715c-.33 0-.496-.183-.496-.55z" fill="#FF9A00"/></g><defs><clipPath id="clip0_906_1865"><path fill="#fff" d="M0 0h82.051v80H0z"/></clipPath></defs></svg>