<svg width="83" height="80" fill="none" xmlns="http://www.w3.org/2000/svg"><g clip-path="url(#clip0_906_1830)"><path d="M67.521 0H14.53C6.505 0 0 6.505 0 14.53v50.94C0 73.495 6.505 80 14.53 80h52.99c8.025 0 14.53-6.505 14.53-14.53V14.53C82.051 6.505 75.546 0 67.521 0z" fill="#49021F"/><path d="M29.798 20.929V55.99c0 .367-.165.55-.496.55h-6.66c-.294 0-.44-.183-.44-.55V20.929c0-.294.165-.44.495-.44h6.66a.39.39 0 01.44.44zm19.705 36.163a17.053 17.053 0 01-7.348-1.541 11.682 11.682 0 01-5.147-4.651c-1.248-2.073-1.871-4.67-1.871-7.789a14.372 14.372 0 011.871-7.21 13.738 13.738 0 015.45-5.285c2.385-1.32 5.265-1.981 8.641-1.981.184 0 .422.009.716.027.293.02.642.047 1.046.083V17.9c0-.256.11-.385.33-.385h6.935a.291.291 0 01.33.33v32.53c0 .625.028 1.304.083 2.037.055.735.101 1.395.138 1.982a.569.569 0 01-.33.55c-1.79.746-3.653 1.3-5.56 1.651a29.858 29.858 0 01-5.284.496zm3.358-6.825V35.24a5.455 5.455 0 00-.908-.165 10.987 10.987 0 00-1.129-.055 8.499 8.499 0 00-3.853.88 7.524 7.524 0 00-2.89 2.532c-.752 1.101-1.128 2.55-1.128 4.349-.027 1.2.17 2.394.578 3.522.333.91.858 1.736 1.541 2.422a5.869 5.869 0 002.312 1.376 9.054 9.054 0 002.835.44c.513 0 .99-.018 1.43-.054.41-.031.817-.105 1.212-.22z" fill="#F36"/></g><defs><clipPath id="clip0_906_1830"><path fill="#fff" d="M0 0h82.051v80H0z"/></clipPath></defs></svg>