<svg width="25" height="24" viewBox="0 0 25 24" fill="none" xmlns="http://www.w3.org/2000/svg">
<path d="M20.5 12V5.74853C20.5 5.5894 20.4368 5.43679 20.3243 5.32426L17.1757 2.17574C17.0632 2.06321 16.9106 2 16.7515 2H5.1C4.76863 2 4.5 2.26863 4.5 2.6V21.4C4.5 21.7314 4.76863 22 5.1 22H11.5" stroke="#FDFDFD" stroke-width="1.5" stroke-linecap="round" stroke-linejoin="round"/>
<path d="M8.5 10H16.5M8.5 6H12.5M8.5 14H11.5" stroke="#FDFDFD" stroke-width="1.5" stroke-linecap="round" stroke-linejoin="round"/>
<path d="M21 20.5L22.5 22" stroke="#FDFDFD" stroke-width="1.5" stroke-linecap="round" stroke-linejoin="round"/>
<path d="M15.5 18C15.5 19.6569 16.8431 21 18.5 21C19.3299 21 20.081 20.663 20.6241 20.1185C21.1654 19.5758 21.5 18.827 21.5 18C21.5 16.3431 20.1569 15 18.5 15C16.8431 15 15.5 16.3431 15.5 18Z" stroke="#FDFDFD" stroke-width="1.5" stroke-linecap="round" stroke-linejoin="round"/>
<path d="M16.5 2V5.4C16.5 5.73137 16.7686 6 17.1 6H20.5" stroke="#FDFDFD" stroke-width="1.5" stroke-linecap="round" stroke-linejoin="round"/>
</svg>
